<svg width="21" height="20" viewBox="0 0 21 20" fill="none" xmlns="http://www.w3.org/2000/svg">
<g id="Social media logo" opacity="0.8">
<rect id="bg" x="1.75" y="1.25" width="17.5" height="17.5" rx="6" fill="url(#paint0_radial_127_1956)"/>
<rect id="bg_2" x="1.75" y="1.25" width="17.5" height="17.5" rx="6" fill="url(#paint1_radial_127_1956)"/>
<rect id="bg_3" x="1.75" y="1.25" width="17.5" height="17.5" rx="6" fill="#666666"/>
<g id="instagram">
<path d="M14.875 6.5625C14.875 7.08027 14.4553 7.5 13.9375 7.5C13.4197 7.5 13 7.08027 13 6.5625C13 6.04473 13.4197 5.625 13.9375 5.625C14.4553 5.625 14.875 6.04473 14.875 6.5625Z" fill="white"/>
<path fill-rule="evenodd" clip-rule="evenodd" d="M10.5 13.125C12.2259 13.125 13.625 11.7259 13.625 10C13.625 8.27411 12.2259 6.875 10.5 6.875C8.77411 6.875 7.375 8.27411 7.375 10C7.375 11.7259 8.77411 13.125 10.5 13.125ZM10.5 11.875C11.5355 11.875 12.375 11.0355 12.375 10C12.375 8.96447 11.5355 8.125 10.5 8.125C9.46447 8.125 8.625 8.96447 8.625 10C8.625 11.0355 9.46447 11.875 10.5 11.875Z" fill="white"/>
<path fill-rule="evenodd" clip-rule="evenodd" d="M4.25 9.75C4.25 7.6498 4.25 6.5997 4.65873 5.79754C5.01825 5.09193 5.59193 4.51825 6.29754 4.15873C7.0997 3.75 8.1498 3.75 10.25 3.75H10.75C12.8502 3.75 13.9003 3.75 14.7025 4.15873C15.4081 4.51825 15.9817 5.09193 16.3413 5.79754C16.75 6.5997 16.75 7.6498 16.75 9.75V10.25C16.75 12.3502 16.75 13.4003 16.3413 14.2025C15.9817 14.9081 15.4081 15.4817 14.7025 15.8413C13.9003 16.25 12.8502 16.25 10.75 16.25H10.25C8.1498 16.25 7.0997 16.25 6.29754 15.8413C5.59193 15.4817 5.01825 14.9081 4.65873 14.2025C4.25 13.4003 4.25 12.3502 4.25 10.25V9.75ZM10.25 5H10.75C11.8207 5 12.5486 5.00097 13.1112 5.04694C13.6592 5.09171 13.9395 5.17287 14.135 5.27248C14.6054 5.51217 14.9878 5.89462 15.2275 6.36502C15.3271 6.56052 15.4083 6.84078 15.4531 7.3888C15.499 7.95141 15.5 8.67928 15.5 9.75V10.25C15.5 11.3207 15.499 12.0486 15.4531 12.6112C15.4083 13.1592 15.3271 13.4395 15.2275 13.635C14.9878 14.1054 14.6054 14.4878 14.135 14.7275C13.9395 14.8271 13.6592 14.9083 13.1112 14.9531C12.5486 14.999 11.8207 15 10.75 15H10.25C9.17928 15 8.45141 14.999 7.8888 14.9531C7.34078 14.9083 7.06052 14.8271 6.86502 14.7275C6.39462 14.4878 6.01217 14.1054 5.77248 13.635C5.67287 13.4395 5.59171 13.1592 5.54694 12.6112C5.50097 12.0486 5.5 11.3207 5.5 10.25V9.75C5.5 8.67928 5.50097 7.95141 5.54694 7.3888C5.59171 6.84078 5.67287 6.56052 5.77248 6.36502C6.01217 5.89462 6.39462 5.51217 6.86502 5.27248C7.06052 5.17287 7.34078 5.09171 7.8888 5.04694C8.45141 5.00097 9.17928 5 10.25 5Z" fill="white"/>
</g>
</g>
<defs>
<radialGradient id="paint0_radial_127_1956" cx="0" cy="0" r="1" gradientUnits="userSpaceOnUse" gradientTransform="translate(8 14.375) rotate(-55.3758) scale(15.9498)">
<stop stop-color="#B13589"/>
<stop offset="0.79309" stop-color="#C62F94"/>
<stop offset="1" stop-color="#8A3AC8"/>
</radialGradient>
<radialGradient id="paint1_radial_127_1956" cx="0" cy="0" r="1" gradientUnits="userSpaceOnUse" gradientTransform="translate(7.375 19.375) rotate(-65.1363) scale(14.1214)">
<stop stop-color="#E0E8B7"/>
<stop offset="0.444662" stop-color="#FB8A2E"/>
<stop offset="0.71474" stop-color="#E2425C"/>
<stop offset="1" stop-color="#E2425C" stop-opacity="0"/>
</radialGradient>
</defs>
</svg>
