<svg width="393" height="415" viewBox="0 0 393 415" fill="none" xmlns="http://www.w3.org/2000/svg">
<path d="M224.726 404.514C224.384 404.514 224.042 404.423 223.735 404.245L57.629 306.532C57.1579 306.256 56.8264 305.796 56.7112 305.262C56.5961 304.728 56.7078 304.173 57.0218 303.726L190.807 113.607C191.429 112.724 192.646 112.511 193.529 113.133C194.412 113.754 194.625 114.972 194.004 115.854L61.4422 304.241L222.948 399.247L228.193 302.186C228.252 301.108 229.159 300.291 230.248 300.34C231.326 300.399 232.15 301.321 232.094 302.395L226.675 402.663C226.636 403.344 226.249 403.958 225.645 404.279C225.359 404.436 225.042 404.513 224.724 404.513L224.726 404.514ZM231.73 274.98C231.695 274.98 231.66 274.98 231.622 274.977C230.544 274.917 229.72 273.996 229.776 272.921L241.948 47.7388L210.873 91.8963C210.252 92.7792 209.034 92.9921 208.151 92.3709C207.268 91.7497 207.055 90.5319 207.676 89.649L242.67 39.926C243.173 39.2142 244.083 38.9176 244.907 39.2037C245.73 39.4898 246.264 40.2854 246.219 41.1544L233.678 273.135C233.622 274.175 232.76 274.981 231.73 274.981L231.73 274.98Z" fill="#333333"/>
<path d="M381.06 306.801H271.511C270.433 306.801 269.557 305.925 269.557 304.847C269.557 303.768 270.433 302.893 271.511 302.893H377.978L301.891 141.208L84.186 223.786C83.174 224.17 82.0469 223.66 81.6665 222.652C81.2827 221.644 81.7922 220.513 82.8006 220.133L302.203 136.913C303.156 136.554 304.227 136.983 304.663 137.908L382.83 304.014C383.116 304.618 383.071 305.33 382.711 305.895C382.356 306.46 381.734 306.802 381.064 306.802L381.06 306.801ZM242.201 306.801H58.6206C57.968 306.801 57.3573 306.473 56.9945 305.932L17.9111 247.307C17.5796 246.811 17.4959 246.194 17.6773 245.625C17.8588 245.06 18.288 244.606 18.8463 244.393L55.3962 230.529C56.4081 230.145 57.5353 230.654 57.9156 231.663C58.2995 232.671 57.79 233.802 56.7816 234.182L22.524 247.174L59.667 302.892H242.202C243.28 302.892 244.156 303.768 244.156 304.846C244.152 305.924 243.277 306.8 242.198 306.8L242.201 306.801Z" fill="#333333"/>
<path d="M19.5371 248.18C19.0765 248.18 18.6194 248.016 18.2564 247.702C17.712 247.235 17.4713 246.502 17.6283 245.8L56.7116 69.9209C56.8268 69.3975 57.1548 68.9438 57.6154 68.6682C58.076 68.3926 58.6309 68.3193 59.1438 68.4623L147.745 93.2702C148.785 93.5598 149.392 94.6381 149.099 95.678C148.809 96.7179 147.727 97.3251 146.691 97.0319L60.0758 72.7797L22.2244 243.103L124.457 204.327C125.466 203.943 126.597 204.452 126.977 205.461C127.361 206.469 126.851 207.6 125.843 207.98L20.233 248.048C20.0062 248.132 19.7724 248.174 19.5386 248.174L19.5371 248.18ZM152.563 197.725C151.775 197.725 151.031 197.243 150.735 196.465C150.351 195.457 150.86 194.326 151.869 193.946L296.642 139.03L174.926 104.947C173.886 104.658 173.279 103.579 173.572 102.539C173.862 101.5 174.94 100.892 175.98 101.186L303.423 136.87C304.236 137.097 304.811 137.819 304.85 138.663C304.888 139.508 304.379 140.279 303.59 140.579L153.26 197.602C153.026 197.683 152.789 197.724 152.562 197.724L152.563 197.725Z" fill="#333333"/>
<path d="M371.287 414.287C359.433 414.287 349.792 404.645 349.792 392.791C349.792 380.938 359.434 371.296 371.287 371.296C383.141 371.296 392.783 380.938 392.783 392.791C392.783 404.645 383.141 414.287 371.287 414.287ZM371.287 375.203C361.59 375.203 353.699 383.093 353.699 392.791C353.699 402.489 361.589 410.379 371.287 410.379C380.985 410.379 388.875 402.489 388.875 392.791C388.875 383.093 380.985 375.203 371.287 375.203Z" fill="#333333"/>
<path d="M136.787 42.9908C124.933 42.9908 115.292 33.349 115.292 21.4954C115.292 9.64175 124.934 0 136.787 0C148.641 0 158.283 9.64175 158.283 21.4954C158.283 33.349 148.641 42.9908 136.787 42.9908ZM136.787 3.90744C127.09 3.90744 119.199 11.7974 119.199 21.4954C119.199 31.1934 127.089 39.0833 136.787 39.0833C146.485 39.0833 154.375 31.1934 154.375 21.4954C154.375 11.7974 146.485 3.90744 136.787 3.90744Z" fill="#333333"/>
<path d="M322.431 277.491C321.915 277.491 321.416 277.275 321.042 276.915C320.679 276.552 320.477 276.046 320.477 275.537C320.477 275.017 320.683 274.511 321.042 274.148C321.775 273.426 323.084 273.426 323.806 274.148C324.176 274.518 324.382 275.017 324.382 275.537C324.382 276.046 324.176 276.552 323.806 276.915C323.447 277.275 322.948 277.491 322.431 277.491Z" fill="#333333"/>
<path d="M293.12 277.491C292.604 277.491 292.105 277.275 291.742 276.915C291.372 276.552 291.166 276.046 291.166 275.537C291.166 275.017 291.372 274.511 291.742 274.148C292.454 273.426 293.773 273.426 294.499 274.148C294.868 274.518 295.074 275.017 295.074 275.537C295.074 276.046 294.868 276.552 294.509 276.915C294.136 277.275 293.637 277.491 293.12 277.491H293.12Z" fill="#333333"/>
<path d="M263.81 277.491C263.293 277.491 262.794 277.275 262.421 276.915C262.058 276.552 261.855 276.046 261.855 275.537C261.855 275.017 262.061 274.521 262.421 274.148C263.154 273.426 264.462 273.426 265.185 274.148C265.554 274.518 265.76 275.017 265.76 275.537C265.76 276.046 265.554 276.552 265.195 276.915C264.825 277.275 264.326 277.491 263.81 277.491H263.81Z" fill="#333333"/>
<path d="M263.81 248.18C263.3 248.18 262.794 247.964 262.421 247.604C262.058 247.242 261.855 246.736 261.855 246.226C261.855 245.706 262.061 245.211 262.421 244.837C263.154 244.115 264.462 244.115 265.185 244.837C265.554 245.207 265.76 245.706 265.76 246.226C265.76 246.735 265.554 247.241 265.185 247.604C264.825 247.964 264.319 248.18 263.81 248.18Z" fill="#333333"/>
<path d="M263.81 218.87C263.293 218.87 262.794 218.654 262.431 218.294C262.061 217.931 261.855 217.425 261.855 216.916C261.855 216.396 262.061 215.9 262.421 215.527C263.154 214.805 264.462 214.805 265.185 215.527C265.554 215.897 265.76 216.396 265.76 216.916C265.76 217.425 265.554 217.931 265.195 218.294C264.825 218.654 264.326 218.87 263.81 218.87Z" fill="#333333"/>
<path d="M0 383.02H19.5417V402.562H0V383.02Z" fill="#333333"/>
<path d="M29.3101 383.02H48.8517V402.562H29.3101V383.02Z" fill="#333333"/>
<path d="M58.6206 383.02H78.1623V402.562H58.6206V383.02Z" fill="#333333"/>
<path d="M87.9312 383.02H107.473V402.562H87.9312V383.02Z" fill="#333333"/>
</svg>
