<svg width="534" height="33" viewBox="0 0 534 33" fill="none" xmlns="http://www.w3.org/2000/svg">
<rect y="15.5" width="226.5" height="2" fill="#666666" fill-opacity="0.25"/>
<path d="M259.508 24.432C258.212 24.432 257.02 24.208 255.932 23.76C254.86 23.312 253.924 22.696 253.124 21.912C252.34 21.112 251.724 20.168 251.276 19.08C250.844 17.976 250.628 16.784 250.628 15.504C250.628 14.224 250.844 13.04 251.276 11.952C251.724 10.848 252.34 9.904 253.124 9.12C253.924 8.32 254.86 7.696 255.932 7.248C257.02 6.8 258.212 6.576 259.508 6.576C260.804 6.576 261.988 6.8 263.06 7.248C264.148 7.696 265.084 8.32 265.868 9.12C266.668 9.904 267.284 10.848 267.716 11.952C268.164 13.04 268.388 14.224 268.388 15.504C268.388 16.784 268.164 17.976 267.716 19.08C267.284 20.168 266.668 21.112 265.868 21.912C265.084 22.696 264.148 23.312 263.06 23.76C261.988 24.208 260.804 24.432 259.508 24.432ZM259.508 22.56C260.5 22.56 261.404 22.376 262.22 22.008C263.052 21.64 263.764 21.136 264.356 20.496C264.948 19.856 265.404 19.112 265.724 18.264C266.06 17.4 266.228 16.48 266.228 15.504C266.228 14.528 266.06 13.616 265.724 12.768C265.404 11.904 264.948 11.152 264.356 10.512C263.764 9.872 263.052 9.368 262.22 9C261.404 8.632 260.5 8.448 259.508 8.448C258.516 8.448 257.604 8.632 256.772 9C255.956 9.368 255.252 9.872 254.66 10.512C254.068 11.152 253.604 11.904 253.268 12.768C252.948 13.616 252.788 14.528 252.788 15.504C252.788 16.48 252.948 17.4 253.268 18.264C253.604 19.112 254.068 19.856 254.66 20.496C255.252 21.136 255.956 21.64 256.772 22.008C257.604 22.376 258.516 22.56 259.508 22.56ZM271.628 7.008H275.972C276.788 7.008 277.596 7.056 278.396 7.152C279.212 7.248 279.94 7.456 280.58 7.776C281.22 8.096 281.74 8.568 282.14 9.192C282.54 9.8 282.74 10.632 282.74 11.688C282.74 12.936 282.364 13.944 281.612 14.712C280.86 15.48 279.82 15.968 278.492 16.176L283.316 24H280.844L276.236 16.368H273.644V24H271.628V7.008ZM273.644 14.496H275.444C276.004 14.496 276.58 14.48 277.172 14.448C277.78 14.416 278.332 14.312 278.828 14.136C279.34 13.96 279.756 13.688 280.076 13.32C280.412 12.936 280.58 12.392 280.58 11.688C280.58 11.08 280.46 10.592 280.22 10.224C279.98 9.856 279.66 9.576 279.26 9.384C278.876 9.176 278.436 9.04 277.94 8.976C277.46 8.912 276.972 8.88 276.476 8.88H273.644V14.496Z" fill="#666666"/>
<rect x="307.5" y="15.5" width="226.5" height="2" fill="#666666" fill-opacity="0.25"/>
</svg>
